<?xml version="1.0" standalone="no"?><!DOCTYPE svg PUBLIC "-//W3C//DTD SVG 1.1//EN" "http://www.w3.org/Graphics/SVG/1.1/DTD/svg11.dtd"><svg t="1744981127386" class="icon" viewBox="0 0 1024 1024" version="1.1" xmlns="http://www.w3.org/2000/svg" p-id="11054" xmlns:xlink="http://www.w3.org/1999/xlink" width="200" height="200"><path d="M672.256 384.32c158.464 0 287.744 115.584 287.744 257.92 0 59.008-22.656 116.224-63.744 162.112l17.92 73.28a43.072 43.072 0 0 1-17.92 46.464 41.536 41.536 0 0 1-25.024 7.68 44.16 44.16 0 0 1-24.96-7.68l-64.384-43.52a308.032 308.032 0 0 1-109.632 19.648c-158.464 0-287.168-115.52-287.168-257.92 0-142.4 128.64-257.92 287.168-257.92zM476.224 96c197.76 0 363.456 125.12 403.328 291.904a355.584 355.584 0 0 0-100.672-47.68C725.248 241.344 609.728 173.44 476.224 173.44c-185.216 0-335.36 130.496-335.36 290.752 0 69.696 29.184 136.96 81.6 190.08a58.304 58.304 0 0 1 15.488 51.2l-0.64 1.792-14.848 61.312 59.52-39.872a58.368 58.368 0 0 1 48.896-1.792c2.368 1.152 5.376 2.368 8.32 3.584 10.752 33.92 28.032 66.112 50.048 94.72a434.624 434.624 0 0 1-78.016-22.656l-101.888 69.12a50.624 50.624 0 0 1-28.608 8.96 52.48 52.48 0 0 1-29.184-8.96 50.816 50.816 0 0 1-20.224-54.208l28.608-116.224C97.92 635.136 64 551.744 64 464.768 64 261.632 248.704 96 476.224 96z m196.608 359.808c-119.104 0-215.68 83.456-215.68 186.496s97.152 186.432 215.68 186.432c32.768 0 64.384-5.952 94.144-18.432a49.664 49.664 0 0 1 41.088 1.792l3.584 2.368 16.64 11.328-4.736-18.496a47.808 47.808 0 0 1 13.12-42.88c33.344-33.92 51.84-76.8 51.84-120.96 0-104.192-97.088-187.648-215.68-187.648z" p-id="11055" fill="#2c2c2c"></path></svg>