<?xml version="1.0" standalone="no"?><!DOCTYPE svg PUBLIC "-//W3C//DTD SVG 1.1//EN" "http://www.w3.org/Graphics/SVG/1.1/DTD/svg11.dtd"><svg t="1737807110437" class="icon" viewBox="0 0 1024 1024" version="1.1" xmlns="http://www.w3.org/2000/svg" p-id="12274" xmlns:xlink="http://www.w3.org/1999/xlink" width="64" height="64"><path d="M730.189935 1023.873586c4.803718 0.126414 9.607436 0 14.411154-0.252827 4.803718-0.252827 9.607436-0.505655 14.284741-1.011309 4.803718-0.505655 9.607436-1.011309 14.411154-1.769791a275.834552 275.834552 0 0 0 28.190241-5.5622 249.881833 249.881833 0 0 0 27.558172-8.3433c4.550891-1.516964 8.975368-3.286755 13.526259-5.056545 4.424477-1.896205 8.722541-3.792409 13.147018-5.815027 4.298064-2.149032 8.596127-4.298064 12.894191-6.573509 4.17165-2.149032 8.3433-4.550891 12.51495-7.079164 4.045236-2.401859 8.216886-4.930132 12.135709-7.711232 4.045236-2.654686 7.964059-5.309373 11.756468-8.216886 3.918823-2.907514 7.711232-5.815027 11.377227-8.848955 3.792409-3.033927 7.331991-6.194268 10.871573-9.481022 3.665995-3.160341 7.079164-6.447095 10.492332-9.860264 3.413168-3.413168 6.699923-6.95275 9.986677-10.492331 3.160341-3.539582 6.320682-7.205577 9.354609-10.871573 3.033927-3.665995 5.941441-7.458404 8.848954-11.377227 2.907514-3.792409 5.688614-7.711232 8.3433-11.756468 2.654686-4.045236 5.182959-8.090473 7.584818-12.135709 2.528273-4.17165 4.930132-8.3433 7.205578-12.641364 2.149032-4.17165 4.298064-8.469714 6.447095-12.767777 2.022618-4.424477 3.918823-8.722541 5.815027-13.273432 1.769791-4.424477 3.539582-8.848954 5.182959-13.399845 1.516964-4.550891 3.033927-9.101782 4.424477-13.652673 1.39055-4.677305 2.654686-9.228195 3.79241-13.9055 1.264136-4.677305 2.275445-9.354609 3.16034-14.031913 0.884895-4.803718 1.769791-9.481023 2.40186-14.284741a271.106682 271.106682 0 0 0 2.781099-28.569481c0.252827-4.803718 0.379241-9.607436 0.379241-14.411155V293.202774c0-4.803718-0.126414-9.607436-0.379241-14.411154-0.252827-4.803718-0.632068-9.481023-1.011309-14.284741-0.505655-4.803718-1.137723-9.607436-1.76979-14.284741-0.758482-4.803718-1.516964-9.481023-2.528273-14.158327-0.884895-4.803718-1.896205-9.481023-3.160341-14.158327a279.33621 279.33621 0 0 0-8.3433-27.431759c-1.516964-4.550891-3.286755-9.101782-5.182959-13.526259-1.769791-4.424477-3.665995-8.848954-5.815027-13.147018-2.022618-4.298064-4.17165-8.596127-6.447096-12.894191-2.275445-4.17165-4.550891-8.3433-7.079163-12.51495a322.961555 322.961555 0 0 0-15.928118-23.892177c-2.907514-3.918823-5.815027-7.584818-8.848955-11.377227-3.160341-3.665995-6.194268-7.331991-9.481022-10.871572-3.160341-3.539582-6.447095-7.079164-9.860264-10.492332-3.413168-3.286755-6.95275-6.699923-10.492332-9.860264-3.539582-3.286755-7.205577-6.320682-10.871572-9.354609-3.665995-3.033927-7.458404-6.067854-11.377228-8.848954-3.792409-2.907514-7.711232-5.688614-11.756468-8.3433-4.045236-2.654686-8.090473-5.182959-12.135709-7.711232-4.17165-2.401859-8.3433-4.803718-12.514949-7.079163a306.376086 306.376086 0 0 0-26.041209-12.262123c-4.424477-1.896205-8.975368-3.539582-13.399846-5.182959-4.550891-1.643377-9.101782-3.160341-13.779086-4.550891-4.550891-1.39055-9.101782-2.654686-13.779086-3.792409-4.677305-1.137723-9.354609-2.275445-14.031914-3.160341-4.803718-1.011309-9.481023-1.769791-14.28474-2.528273-4.677305-0.632068-9.481023-1.264136-14.284741-1.643377-4.677305-0.505655-9.481023-0.884895-14.284741-1.137723-4.803718-0.252827-9.607436-0.379241-14.411154-0.252827H293.683652c-4.803718-0.126414-9.607436 0-14.411155 0.252827-4.803718 0.252827-9.607436 0.632068-14.28474 1.137723-4.803718 0.379241-9.607436 1.011309-14.284741 1.643377-4.803718 0.758482-9.481023 1.516964-14.284741 2.528273-4.677305 0.884895-9.354609 2.022618-14.031913 3.160341-4.677305 1.137723-9.228195 2.401859-13.779087 3.792409-4.677305 1.39055-9.228195 2.907514-13.779086 4.550891-4.424477 1.643377-8.975368 3.286755-13.399845 5.182959a306.376086 306.376086 0 0 0-26.041209 12.262123c-4.17165 2.275445-8.3433 4.677305-12.51495 7.079163-4.045236 2.528273-8.090473 5.056545-12.135709 7.711232-4.045236 2.654686-7.964059 5.435786-11.756468 8.3433-3.918823 2.7811-7.711232 5.815027-11.377227 8.848954-3.665995 3.033927-7.331991 6.067854-10.871573 9.354609-3.539582 3.160341-7.079164 6.573509-10.492332 9.860264-3.413168 3.413168-6.699923 6.95275-9.860263 10.492332-3.286755 3.539582-6.320682 7.205577-9.481023 10.871572-3.033927 3.792409-5.941441 7.458404-8.848954 11.377227a322.961555 322.961555 0 0 0-15.928118 23.892177c-2.528273 4.17165-4.803718 8.3433-7.079164 12.51495-2.275445 4.298064-4.424477 8.596127-6.447095 12.894191-2.149032 4.298064-4.045236 8.722541-5.941441 13.147018-1.769791 4.424477-3.539582 8.975368-5.056546 13.526259a279.33621 279.33621 0 0 0-8.3433 27.431759c-1.264136 4.677305-2.275445 9.354609-3.16034 14.158327-1.011309 4.677305-1.769791 9.354609-2.528273 14.158327-0.632068 4.677305-1.264136 9.481023-1.769791 14.284741-0.379241 4.803718-0.758482 9.481023-1.011309 14.284741-0.252827 4.803718-0.379241 9.607436-0.379241 14.411154V730.720366c0 4.803718 0.126414 9.607436 0.379241 14.411155 0.252827 4.803718 0.632068 9.481023 1.011309 14.28474 0.505655 4.803718 1.137723 9.607436 1.769791 14.284741 0.758482 4.803718 1.516964 9.481023 2.528273 14.158327 0.884895 4.803718 1.896205 9.481023 3.16034 14.158327a279.33621 279.33621 0 0 0 8.3433 27.431759c1.516964 4.550891 3.286755 9.101782 5.056546 13.526259 1.896205 4.424477 3.792409 8.722541 5.941441 13.147018 2.022618 4.298064 4.17165 8.596127 6.447095 12.894191 2.275445 4.17165 4.550891 8.3433 7.079164 12.51495a322.961555 322.961555 0 0 0 15.928118 23.892177c2.907514 3.918823 5.815027 7.584818 8.848954 11.377227 3.160341 3.665995 6.194268 7.331991 9.481023 10.871573 3.160341 3.539582 6.447095 7.079164 9.860263 10.492332 3.413168 3.286755 6.95275 6.699923 10.492332 9.860263 3.539582 3.286755 7.205577 6.320682 10.871573 9.354609 3.665995 3.033927 7.458404 6.067854 11.377227 8.848955 3.792409 2.907514 7.711232 5.688614 11.756468 8.3433 4.045236 2.654686 8.090473 5.182959 12.135709 7.711231 4.17165 2.401859 8.3433 4.803718 12.51495 7.079164a306.376086 306.376086 0 0 0 26.041209 12.262123c4.424477 1.896205 8.975368 3.539582 13.399845 5.182959 4.550891 1.643377 9.101782 3.160341 13.779086 4.55089 4.550891 1.39055 9.101782 2.654686 13.779087 3.79241 4.677305 1.137723 9.354609 2.275445 14.031913 3.16034 4.803718 1.011309 9.481023 1.769791 14.284741 2.528273 4.677305 0.632068 9.481023 1.264136 14.284741 1.643377 4.677305 0.505655 9.481023 0.884895 14.28474 1.137723 4.803718 0.252827 9.607436 0.379241 14.411155 0.252827h436.506283z" fill="#E6FBF3" p-id="12275"></path><path d="M508.460418 303.442279C380.90906 303.442279 278.134775 399.769469 278.134775 517.586977c0 13.020604 1.39055 25.788382 3.918822 38.556159 2.528273 12.767777 6.194268 25.156313 10.997987 37.165609s10.745159 23.512936 17.824322 34.510922c6.95275 10.997986 14.916809 21.237491 23.765764 30.718513l-13.147018 46.267391c-0.379241 1.516964-0.632068 3.160341-0.758482 4.803718 0 1.643377 0.126414 3.160341 0.379241 4.803718 0.252827 1.643377 0.758482 3.160341 1.39055 4.550891 0.758482 1.516964 1.516964 2.907514 2.528272 4.17165 1.011309 1.39055 2.149032 2.528273 3.286755 3.539582 1.264136 1.011309 2.654686 1.896205 4.17165 2.654686 1.39055 0.758482 2.907514 1.264136 4.550891 1.643377 1.516964 0.379241 3.160341 0.632068 4.803718 0.632069h182.541289c120.345781-8.975368 214.271112-101.636563 214.271112-214.018285C738.659648 399.769469 635.885363 303.442279 508.460418 303.442279z" fill="#32D998" p-id="12276"></path><path d="M386.597674 513.794568c0 2.275445 0.252827 4.424477 0.632068 6.573509 0.505655 2.149032 1.137723 4.298064 1.896204 6.320682 0.884895 2.022618 1.896205 3.918823 3.160341 5.688613a32.905469 32.905469 0 0 0 9.228196 9.354609c1.769791 1.137723 3.665995 2.149032 5.815027 3.033928 2.022618 0.884895 4.045236 1.516964 6.194268 1.896204 2.149032 0.505655 4.424477 0.632068 6.573509 0.632068 2.149032 0 4.424477-0.126414 6.573509-0.632068 2.149032-0.379241 4.17165-1.011309 6.194268-1.896204 2.022618-0.884895 4.045236-1.896205 5.815028-3.033928 1.769791-1.264136 3.539582-2.654686 5.056545-4.17165 1.516964-1.643377 2.907514-3.286755 4.17165-5.182959 1.264136-1.769791 2.275445-3.665995 3.160341-5.688613 0.758482-2.022618 1.39055-4.17165 1.896204-6.320682 0.379241-2.149032 0.632068-4.298064 0.632068-6.573509 0-2.149032-0.252827-4.298064-0.632068-6.447095-0.505655-2.149032-1.137723-4.298064-1.896204-6.320682a37.165609 37.165609 0 0 0-3.160341-5.815027c-1.264136-1.769791-2.654686-3.539582-4.17165-5.056546-1.516964-1.516964-3.286755-2.907514-5.056545-4.17165s-3.792409-2.275445-5.815028-3.033927c-2.022618-0.884895-4.045236-1.516964-6.194268-1.896205-2.149032-0.505655-4.424477-0.632068-6.573509-0.632068-2.149032 0-4.424477 0.126414-6.573509 0.632068-2.149032 0.379241-4.17165 1.011309-6.194268 1.896205-2.149032 0.758482-4.045236 1.769791-5.815027 3.033927-1.896205 1.264136-3.539582 2.654686-5.056546 4.17165-1.643377 1.516964-3.033927 3.286755-4.17165 5.056546-1.264136 1.896205-2.275445 3.792409-3.160341 5.815027-0.758482 2.022618-1.39055 4.17165-1.896204 6.320682-0.379241 2.149032-0.632068 4.298064-0.632068 6.447095zM565.472968 513.794568c0 2.275445 0.252827 4.424477 0.632068 6.573509 0.505655 2.149032 1.137723 4.298064 1.896204 6.320682 0.884895 2.022618 1.896205 3.918823 3.160341 5.688613a32.905469 32.905469 0 0 0 9.228196 9.354609c1.769791 1.137723 3.665995 2.149032 5.815027 3.033928 2.022618 0.884895 4.045236 1.516964 6.194268 1.896204 2.149032 0.505655 4.424477 0.632068 6.573509 0.632068 2.149032 0 4.424477-0.126414 6.573509-0.632068 2.149032-0.379241 4.17165-1.011309 6.194268-1.896204 2.022618-0.884895 4.045236-1.896205 5.815027-3.033928 1.896205-1.264136 3.539582-2.654686 5.056546-4.17165 1.516964-1.643377 2.907514-3.286755 4.17165-5.182959 1.264136-1.769791 2.275445-3.665995 3.160341-5.688613 0.758482-2.022618 1.39055-4.17165 1.896204-6.320682 0.379241-2.149032 0.632068-4.298064 0.632068-6.573509 0-2.149032-0.252827-4.298064-0.632068-6.447095-0.505655-2.149032-1.137723-4.298064-1.896204-6.320682a37.165609 37.165609 0 0 0-3.160341-5.815027c-1.264136-1.769791-2.654686-3.539582-4.17165-5.056546-1.516964-1.516964-3.160341-2.907514-5.056546-4.17165-1.769791-1.264136-3.792409-2.275445-5.815027-3.033927-2.022618-0.884895-4.045236-1.516964-6.194268-1.896205-2.149032-0.505655-4.424477-0.632068-6.573509-0.632068-2.149032 0-4.424477 0.126414-6.573509 0.632068-2.149032 0.379241-4.17165 1.011309-6.194268 1.896205-2.149032 0.758482-4.045236 1.769791-5.815027 3.033927-1.896205 1.264136-3.539582 2.654686-5.056546 4.17165-1.643377 1.516964-3.033927 3.286755-4.17165 5.056546-1.264136 1.896205-2.275445 3.792409-3.160341 5.815027-0.758482 2.022618-1.39055 4.17165-1.896204 6.320682-0.379241 2.149032-0.632068 4.298064-0.632068 6.447095z" fill="#FFFFFF" p-id="12277"></path></svg>