<?xml version="1.0" standalone="no"?><!DOCTYPE svg PUBLIC "-//W3C//DTD SVG 1.1//EN" "http://www.w3.org/Graphics/SVG/1.1/DTD/svg11.dtd"><svg t="1741830970737" class="icon" viewBox="0 0 1024 1024" version="1.1" xmlns="http://www.w3.org/2000/svg" p-id="12696" xmlns:xlink="http://www.w3.org/1999/xlink" width="200" height="200"><path d="M512 512m-512 0a512 512 0 1 0 1024 0 512 512 0 1 0-1024 0Z" fill="#F5F5F5" p-id="12697"></path><path d="M707.291429 720.713143c26.953143 0 48.786286-21.211429 48.786285-47.323429v-158.537143h-107.483428a24.649143 24.649143 0 0 0-19.529143 9.508572l-51.675429 49.188571c-9.216 11.958857-23.698286 19.017143-39.131428 19.017143H492.251429c-15.250286 0-29.622857-6.948571-38.838858-18.761143l-52.809142-49.590857a24.649143 24.649143 0 0 0-19.456-9.362286H268.726857v158.537143c0 26.112 21.833143 47.323429 48.749714 47.323429h389.851429zM389.632 322.669714l-120.868571 145.993143h119.698285c14.994286 0 29.220571 6.729143 38.436572 18.212572l53.906285 49.078857c4.644571 5.741714 11.702857 9.142857 19.236572 9.142857h31.670857a24.649143 24.649143 0 0 0 19.419429-9.398857l52.004571-48.420572c9.142857-11.739429 23.478857-18.651429 38.656-18.724571l114.322286-0.256-122.514286-145.92a49.225143 49.225143 0 0 0-39.533714-19.602286H429.348571s-23.332571 0-39.753142 19.894857zM796.525714 456.777143c5.266286 7.753143 8.045714 16.822857 8.082286 26.112v190.281143c0 52.260571-43.629714 94.610286-97.499429 94.610285L317.001143 768h-0.036572C263.094857 768 219.428571 725.650286 219.428571 673.389714l0.036572-204.507428L350.72 298.130286A98.377143 98.377143 0 0 1 431.872 256h161.316571c32.731429 0 63.268571 15.945143 81.334858 42.422857l121.929142 158.354286z" fill="#666666" p-id="12698"></path></svg>