<?xml version="1.0" standalone="no"?><!DOCTYPE svg PUBLIC "-//W3C//DTD SVG 1.1//EN" "http://www.w3.org/Graphics/SVG/1.1/DTD/svg11.dtd"><svg t="1732637746038" class="icon" viewBox="0 0 1024 1024" version="1.1" xmlns="http://www.w3.org/2000/svg" p-id="74030" xmlns:xlink="http://www.w3.org/1999/xlink" width="200" height="200"><path d="M62.577778 745.244444V369.777778v-5.688889c5.688889-11.377778 11.377778-11.377778 22.755555-11.377778 5.688889 0 5.688889 0 11.377778 5.688889 56.888889 34.133333 113.777778 73.955556 170.666667 108.088889 17.066667 11.377778 17.066667 17.066667 11.377778 34.133333-11.377778 28.444444-28.444444 51.2-39.822223 79.644445-5.688889 11.377778-11.377778 28.444444-17.066666 39.822222-5.688889 5.688889 0 17.066667 0 17.066667 5.688889 5.688889 11.377778 5.688889 17.066666 0 5.688889-5.688889 5.688889-11.377778 11.377778-11.377778 22.755556-28.444444 45.511111-51.2 68.266667-79.644445l11.377778-11.377777c11.377778-11.377778 22.755556-11.377778 34.133333 0 0 0 5.688889 0 5.688889 5.688888 34.133333 22.755556 68.266667 45.511111 96.711111 62.577778 17.066667 11.377778 39.822222 17.066667 56.888889 11.377778 11.377778-5.688889 22.755556-5.688889 34.133333-11.377778 34.133333-22.755556 73.955556-45.511111 108.088889-68.266666 11.377778-5.688889 22.755556-5.688889 34.133333 5.688888l5.688889 5.688889c11.377778 17.066667 22.755556 28.444444 39.822222 45.511111 11.377778 17.066667 28.444444 34.133333 39.822223 51.2 5.688889 5.688889 17.066667 11.377778 22.755555 5.688889 5.688889-5.688889 11.377778-11.377778 5.688889-22.755555s-11.377778-28.444444-17.066667-39.822222l-34.133333-85.333334c-5.688889-11.377778-5.688889-17.066667 5.688889-28.444444l153.6-102.4c5.688889-5.688889 11.377778-5.688889 17.066667-5.688889 11.377778-5.688889 17.066667 0 22.755555 5.688889v398.222222c0 5.688889 0 11.377778-5.688889 17.066667-5.688889 34.133333-22.755556 51.2-56.888889 56.888889-5.688889 0-17.066667 0-22.755555 5.688888H153.6c-5.688889 0-11.377778 0-17.066667-5.688888-39.822222-5.688889-68.266667-34.133333-73.955555-73.955556v-22.755556z" fill="#1296db" p-id="74031"></path><path d="M961.422222 221.866667v45.511111c-5.688889 5.688889-11.377778 17.066667-22.755555 17.066666-125.155556 79.644444-250.311111 153.6-381.155556 227.555556l-34.133333 17.066667c-5.688889 5.688889-17.066667 5.688889-22.755556 0-5.688889 0-11.377778-5.688889-17.066666-11.377778-17.066667-5.688889-34.133333-17.066667-51.2-28.444445C312.888889 420.977778 199.111111 352.711111 79.644444 284.444444c0 0-5.688889-5.688889-11.377777-5.688888 0-5.688889-5.688889-11.377778-5.688889-17.066667v-28.444445c0-22.755556 17.066667-39.822222 39.822222-45.511111H910.222222c28.444444 0 45.511111 5.688889 51.2 34.133334zM881.777778 841.955556c5.688889 0 17.066667 0 22.755555-5.688889 28.444444-5.688889 45.511111-28.444444 56.888889-56.888889 0-5.688889 0-11.377778 5.688889-17.066667v79.644445h-85.333333z" fill="#1296db" p-id="74032"></path></svg>