<?xml version="1.0" standalone="no"?><!DOCTYPE svg PUBLIC "-//W3C//DTD SVG 1.1//EN" "http://www.w3.org/Graphics/SVG/1.1/DTD/svg11.dtd"><svg t="1737813466792" class="icon" viewBox="0 0 1024 1024" version="1.1" xmlns="http://www.w3.org/2000/svg" p-id="15570" width="64" height="64" xmlns:xlink="http://www.w3.org/1999/xlink"><path d="M757.248 184.100571c-38.619429-37.741714-96.256-65.243429-151.478857-60.269714a31.524571 31.524571 0 0 0-28.013714 30.646857c0 16.457143 13.019429 29.988571 29.403428 30.72 40.813714 0.804571 77.677714 14.043429 107.154286 42.861715 29.037714 28.379429 43.593143 62.537143 43.593143 102.4 0 51.712-29.110857 99.474286-73.654857 125.147428-19.163429 10.971429-31.524571 27.574857-37.083429 49.737143-8.557714 34.011429 8.777143 68.681143 42.861714 78.628571a281.380571 281.380571 0 0 1 115.346286 65.901715c30.061714 28.306286 66.779429 73.435429 73.654857 115.785143 0.658286 3.657143-4.388571 7.094857-10.459428 7.094857h-79.945143a30.72 30.72 0 0 0 0 61.44h79.945143c41.837714 0 78.116571-35.547429 71.094857-78.482286-9.142857-56.32-51.931429-112.64-92.16-150.601143A342.016 342.016 0 0 0 707.291429 525.019429c-5.412571-1.609143-2.048-10.605714 7.533714-16.091429 31.744-18.285714 56.978286-42.934857 75.556571-74.020571 19.309714-32.182857 28.964571-66.998857 28.964572-104.448 0-57.124571-20.699429-105.910857-62.098286-146.285715z" p-id="15571"></path><path d="M403.748571 123.757714c113.517714 0 210.797714 91.940571 210.797715 206.701715 0 82.285714-51.419429 157.988571-126.829715 190.171428a345.892571 345.892571 0 0 1 244.809143 225.133714c14.701714 45.714286-22.893714 88.429714-68.754285 88.429715h-520.045715c-46.08 0-83.382857-42.422857-68.900571-88.064a346.038857 346.038857 0 0 1 243.565714-225.133715C243.785143 488.448 192.950857 413.110857 192.950857 331.337143c0-114.688 97.133714-207.579429 210.870857-207.579429z m0 448.585143c-120.539429 0-232.374857 77.092571-270.336 192.365714-1.462857 4.681143 3.876571 8.045714 10.24 8.045715h520.118858c6.363429 0 11.702857-3.291429 10.24-7.972572-38.034286-115.273143-149.650286-192.365714-270.262858-192.365714z m149.357715-241.883428c0-81.115429-69.485714-145.261714-149.357715-145.261715-80.091429 0-149.430857 65.097143-149.430857 146.139429 0 81.627429 70.363429 144.384 149.430857 144.384l7.094858-0.146286c76.8-3.657143 142.262857-66.413714 142.262857-145.115428z" p-id="15572"></path></svg>