<?xml version="1.0" standalone="no"?><!DOCTYPE svg PUBLIC "-//W3C//DTD SVG 1.1//EN" "http://www.w3.org/Graphics/SVG/1.1/DTD/svg11.dtd"><svg t="1732621787493" class="icon" viewBox="0 0 1024 1024" version="1.1" xmlns="http://www.w3.org/2000/svg" p-id="2935" xmlns:xlink="http://www.w3.org/1999/xlink" width="200" height="200"><path d="M843.8272 337.8176L570.368 132.7104c-34.3552-25.7536-82.3808-25.7536-116.736 0L180.224 337.8176c-24.3712 18.2784-38.912 47.36-38.912 77.824v396.4416c0 53.6576 43.6224 97.28 97.28 97.28h546.816c53.6576 0 97.28-43.6224 97.28-97.28V415.5904c0-30.4128-14.5408-59.4944-38.8608-77.7728z m-170.9056 436.0704c0 14.1312-11.4688 25.6-25.6 25.6s-25.6-11.4688-25.6-25.6v-122.5728c0-59.9552-48.7936-108.6976-108.6976-108.6976-59.9552 0-108.6976 48.7936-108.6976 108.6976v122.5728c0 14.1312-11.4688 25.6-25.6 25.6s-25.6-11.4688-25.6-25.6v-122.5728c0-88.1664 71.7312-159.8976 159.8976-159.8976s159.8976 71.7312 159.8976 159.8976v122.5728z" fill="#9fc6ff" p-id="2936"></path></svg>