<?xml version="1.0" standalone="no"?><!DOCTYPE svg PUBLIC "-//W3C//DTD SVG 1.1//EN" "http://www.w3.org/Graphics/SVG/1.1/DTD/svg11.dtd"><svg t="1737722033786" class="icon" viewBox="0 0 1024 1024" version="1.1" xmlns="http://www.w3.org/2000/svg" p-id="5269" xmlns:xlink="http://www.w3.org/1999/xlink" width="64" height="64"><path d="M923.5 411.2c-28.6-33.9-72.1-53-116.4-51.1h-68c6.4-31.6 10.1-63.9 11.2-96v-0.8c-0.5-60.9-18.7-112-51.2-144-22.6-22.2-50.8-33.7-81.5-33.3-38.3 0-69.1 11.5-91.7 34.2-26.5 26.5-39.9 66.8-39.8 119.6 0.1 40.1-19.4 83.4-52.1 115.9-32 31.8-71.7 49.3-111.8 49.3H295.6c-3 0-6 0.3-8.9 0.8v-1.2H140.8c-39.7 0-72.2 32.5-72.2 72.2v392.9c0 39.7 32.5 72.2 72.2 72.2h146.8v-0.6c2.9 0.4 5.9 0.7 8.9 0.7h464.7c33.3-0.8 65.6-13 91.1-34.4s43.1-51.1 49.6-83.8l52.3-289.1c9.4-43.4-2.1-89.6-30.7-123.5zM147.7 843.7v-344c0-9 7.3-16.3 16.3-16.3h70.4V860H164c-9 0-16.3-7.3-16.3-16.3z m726.4-324.9l-0.2 0.6-51.7 290.3c-6.7 29.1-32.3 50.2-62.2 51.3l-4.9 0.2-0.4 0.3h-440V486h7.3c61.4 0 121-25.7 168.1-72.4 48.6-48.2 76.5-111.7 76.5-174.2-0.1-31.5 4.9-51.8 15.3-62.2 7.4-7.4 18.7-10.8 35.8-10.8h0.2c9-0.1 17.4 3.6 24.9 11 16.3 16.2 25.7 47.3 25.8 85.4-1.2 41.8-7.9 83.3-19.9 123.4l-21.6 54.3h181.5c20.1-1.3 39.7 7.2 52.6 22.6 12.9 15.3 17.7 36.2 12.9 55.7z" p-id="5270" fill="#8a8a8a"></path></svg>