<?xml version="1.0" standalone="no"?><!DOCTYPE svg PUBLIC "-//W3C//DTD SVG 1.1//EN" "http://www.w3.org/Graphics/SVG/1.1/DTD/svg11.dtd"><svg t="1737806995272" class="icon" viewBox="0 0 1024 1024" version="1.1" xmlns="http://www.w3.org/2000/svg" p-id="10796" xmlns:xlink="http://www.w3.org/1999/xlink" width="64" height="64"><path d="M730.252114 1023.999032a292.488165 292.488165 0 0 0 293.262455-293.262455V293.262552A293.068882 293.068882 0 0 0 730.252114 0.000097H293.745951A293.068882 293.068882 0 0 0 0.483496 293.262552v437.474025a293.068882 293.068882 0 0 0 293.262455 293.262455z" fill="#f15cb3" p-id="10797" data-spm-anchor-id="a313x.search_index.0.i25.62fe3a81dA2Mxr" class="selected"></path><path d="M625.722922 309.716221a125.241458 125.241458 0 0 0-114.207821 76.461168A124.66074 124.66074 0 0 0 397.30728 309.716221a111.981736 111.981736 0 0 0-114.20782 114.207821c0 88.075523 88.075523 164.536691 227.447778 291.326729C649.919494 588.460733 737.995017 512.967427 737.995017 423.924042A108.787789 108.787789 0 0 0 625.722922 309.716221z" fill="#d81e06" p-id="10798" data-spm-anchor-id="a313x.search_index.0.i23.62fe3a81dA2Mxr" class=""></path></svg>