<?xml version="1.0" standalone="no"?><!DOCTYPE svg PUBLIC "-//W3C//DTD SVG 1.1//EN" "http://www.w3.org/Graphics/SVG/1.1/DTD/svg11.dtd"><svg t="1732621960686" class="icon" viewBox="0 0 1024 1024" version="1.1" xmlns="http://www.w3.org/2000/svg" p-id="3107" xmlns:xlink="http://www.w3.org/1999/xlink" width="200" height="200"><path d="M502.9888 303.36c-63.5904 0-115.3536 51.712-115.3536 115.3536 0 60.416 46.7456 110.1312 105.9328 114.8928 3.1232-0.1024 6.2464-0.1536 9.4208-0.1536 3.1232 0 6.2976 0.1024 9.4208 0.1536 59.1872-4.8128 105.9328-54.4768 105.9328-114.8928-0.0512-63.6416-51.7632-115.3536-115.3536-115.3536z" fill="#8a8a8a" p-id="3108"></path><path d="M502.9888 112.5376c-220.5184 0-399.9232 179.4048-399.9232 399.9232s179.4048 399.9232 399.9232 399.9232 399.9232-179.4048 399.9232-399.9232-179.4048-399.9232-399.9232-399.9232z m262.5024 637.0304a25.61536 25.61536 0 0 1-33.5872-13.5168 248.43264 248.43264 0 0 0-218.5216-151.1936c-3.4304 0.2048-6.912 0.3584-10.3936 0.3584s-6.9632-0.1536-10.3936-0.3584a248.35584 248.35584 0 0 0-218.4704 151.04 25.61024 25.61024 0 0 1-33.5872 13.5168 25.61024 25.61024 0 0 1-13.5168-33.5872 299.4176 299.4176 0 0 1 174.8992-164.864c-39.7824-30.464-65.4848-78.3872-65.4848-132.2496 0-91.8528 74.7008-166.5536 166.5536-166.5536 91.8016 0 166.5536 74.7008 166.5536 166.5536 0 53.8624-25.7024 101.7856-65.4848 132.2496a299.4944 299.4944 0 0 1 175.0016 165.0688 25.63584 25.63584 0 0 1-13.568 33.536z" fill="#8a8a8a" p-id="3109"></path></svg>