<?xml version="1.0" standalone="no"?><!DOCTYPE svg PUBLIC "-//W3C//DTD SVG 1.1//EN" "http://www.w3.org/Graphics/SVG/1.1/DTD/svg11.dtd"><svg t="1732622094107" class="icon" viewBox="0 0 1024 1024" version="1.1" xmlns="http://www.w3.org/2000/svg" p-id="4153" xmlns:xlink="http://www.w3.org/1999/xlink" width="200" height="200"><path d="M778.3424 232.0384C705.024 157.696 607.232 115.9168 502.9376 114.3808c-1.9968-0.0512-3.9424-0.0512-5.888-0.0512-212.736 0-389.4272 171.2128-395.1616 384.3072-2.3552 86.5792 22.8352 169.472 72.7552 239.7184 16.64 23.3984-0.2048 69.2224-13.7728 106.0352l-1.6384 4.4544c-4.8128 13.1584-3.072 27.1872 4.864 38.5536 8.2432 11.8272 22.0672 18.8928 36.9664 18.8928 47.4112 0 115.0464-0.4608 174.7456-0.8704 48.7936-0.3072 94.8736-0.6656 121.1392-0.6656 217.9072 0 395.2128-177.3056 395.2128-395.2128 0-104.4992-40.3968-203.0592-113.8176-277.504z m-199.8848 407.552H308.224c-14.1312 0-25.6-11.4688-25.6-25.6s11.4688-25.6 25.6-25.6h270.2848c14.1312 0 25.6 11.4688 25.6 25.6s-11.52 25.6-25.6512 25.6z m107.1616-175.9744H308.224c-14.1312 0-25.6-11.4688-25.6-25.6s11.4688-25.6 25.6-25.6h377.4464c14.1312 0 25.6 11.4688 25.6 25.6s-11.4688 25.6-25.6512 25.6z" fill="#8a8a8a" p-id="4154"></path></svg>