<?xml version="1.0" standalone="no"?><!DOCTYPE svg PUBLIC "-//W3C//DTD SVG 1.1//EN" "http://www.w3.org/Graphics/SVG/1.1/DTD/svg11.dtd"><svg t="1737806862955" class="icon" viewBox="0 0 1024 1024" version="1.1" xmlns="http://www.w3.org/2000/svg" p-id="6595" xmlns:xlink="http://www.w3.org/1999/xlink" width="64" height="64"><path d="M0 0m368.64 0l286.72 0q368.64 0 368.64 368.64l0 286.72q0 368.64-368.64 368.64l-286.72 0q-368.64 0-368.64-368.64l0-286.72q0-368.64 368.64-368.64Z" fill="#E0EEFD" p-id="6596"></path><path d="M461.32224 274.944a142.45888 142.45888 0 0 1 77.312 262.11328l0.13312 0.06144a11.8784 11.8784 0 0 0 1.9456 20.992 208.36352 208.36352 0 0 1 125.62432 156.20096 29.7472 29.7472 0 0 1-29.46048 34.7136H285.88032a29.7472 29.7472 0 0 1-29.46048-34.7136 208.41472 208.41472 0 0 1 125.61408-156.34432 11.8784 11.8784 0 0 0 1.98656-20.91008A142.45888 142.45888 0 0 1 461.312 274.944z m164.1472 80.51712a94.208 94.208 0 0 1 57.79456 173.17888 7.80288 7.80288 0 0 0 1.28 13.85472 137.91232 137.91232 0 0 1 83.18976 103.40352 19.712 19.712 0 0 1-19.54816 22.9376h-59.904a241.2544 241.2544 0 0 0-104.21248-126.0032 175.1552 175.1552 0 0 0 41.40032-187.37152z" fill="#2486F4" p-id="6597"></path></svg>