<?xml version="1.0" standalone="no"?><!DOCTYPE svg PUBLIC "-//W3C//DTD SVG 1.1//EN" "http://www.w3.org/Graphics/SVG/1.1/DTD/svg11.dtd"><svg t="1740487605593" class="icon" viewBox="0 0 1024 1024" version="1.1" xmlns="http://www.w3.org/2000/svg" p-id="22806" xmlns:xlink="http://www.w3.org/1999/xlink" width="200" height="200"><path d="M281.6 473.6h51.2v409.6h-51.2zM691.2 448h51.2v435.2h-51.2zM921.6 652.8c15.36 0 25.6 10.24 25.6 25.6v179.2c0 15.36-10.24 25.6-25.6 25.6s-25.6-10.24-25.6-25.6v-179.2c0-15.36 10.24-25.6 25.6-25.6zM102.4 396.8c15.36 0 25.6 10.24 25.6 25.6v435.2c0 15.36-10.24 25.6-25.6 25.6s-25.6-10.24-25.6-25.6v-435.2c0-15.36 10.24-25.6 25.6-25.6zM512 115.2c15.36 0 25.6 10.24 25.6 25.6v716.8c0 15.36-10.24 25.6-25.6 25.6s-25.6-10.24-25.6-25.6v-716.8c0-15.36 10.24-25.6 25.6-25.6z" p-id="22807" fill="#27ea34"></path></svg>