<?xml version="1.0" standalone="no"?><!DOCTYPE svg PUBLIC "-//W3C//DTD SVG 1.1//EN" "http://www.w3.org/Graphics/SVG/1.1/DTD/svg11.dtd"><svg t="1733398757203" class="icon" viewBox="0 0 1024 1024" version="1.1" xmlns="http://www.w3.org/2000/svg" p-id="7182" xmlns:xlink="http://www.w3.org/1999/xlink" width="200" height="200"><path d="M90.994434 192.168718h670.989037c16.175401 0 25.88146-9.868765 29.119201-26.320459 0-16.451694-12.9438-26.326599-25.8876-26.326599H94.232175c-16.181541 0-25.8876 13.159718-25.887601 26.326599 0 16.451694 9.706059 26.320459 22.64986 26.320459zM511.286756 447.759907h-420.292322c-12.9438 0-22.649859 9.868765-25.8876 26.314319 0 16.445554 12.9438 26.314319 25.8876 26.314319h420.292322c16.175401 0 25.88146-13.154601 25.88146-26.314319 0-16.445554-12.942777-26.314319-25.88146-26.314319zM469.199195 791.617395h-378.203738c-12.9438 0-22.649859 9.868765-25.8876 26.320459 0 16.445554 12.9438 26.314319 25.8876 26.314319h378.203738c16.175401 0 25.88146-13.159718 25.88146-26.314319 0-16.451694-12.9438-26.320459-25.88146-26.320459z" fill="" p-id="7183"></path><path d="M944.325379 405.203672l-116.706025-71.190389c-11.676947-7.915273-23.346731-3.957125-35.016515 3.949962-7.77815 3.958148-11.669784 15.82236-11.669784 23.737634v284.789185c-19.446911-11.865235-38.902008-19.779486-66.134233-19.779486-66.140373 0-120.604822 55.375192-120.604822 122.614596s54.464449 130.529869 120.604822 130.529868c66.134233 0 120.597659-55.375192 120.597659-122.614595V413.118945l77.804017 43.509957c15.562441 7.91425 31.123858 3.957125 38.902009-11.872399 11.676947-11.865235 7.78429-31.637558-7.777128-39.552831z m-229.526557 415.319054c-35.016515 0-62.248739-27.687596-62.248739-63.282279 0-35.609009 27.232225-63.289442 62.248739-63.289442 35.009352 0 62.241576 27.680433 62.241577 63.289442 0 35.594683-27.232225 63.282279-62.241577 63.282279z" fill="" p-id="7184"></path></svg>