<?xml version="1.0" standalone="no"?><!DOCTYPE svg PUBLIC "-//W3C//DTD SVG 1.1//EN" "http://www.w3.org/Graphics/SVG/1.1/DTD/svg11.dtd"><svg t="1741849059973" class="icon" viewBox="0 0 1024 1024" version="1.1" xmlns="http://www.w3.org/2000/svg" p-id="163853" xmlns:xlink="http://www.w3.org/1999/xlink" width="200" height="200"><path d="M512 512m-512 0a512 512 0 1 0 1024 0 512 512 0 1 0-1024 0Z" fill="#F5F5F5" opacity=".665" p-id="163854" data-spm-anchor-id="a313x.search_index.0.i22.cf153a81H3zqBL" class=""></path><path d="M512 645.5296a134.144 134.144 0 1 1 0-268.288 134.144 134.144 0 0 1 0 268.288z m0-38.2976a95.7952 95.7952 0 1 0 0-191.6416 95.7952 95.7952 0 0 0 0 191.6416z m0 114.944c-113.0496 0-214.272-67.4816-303.36-200.0896a19.1488 19.1488 0 0 1 0-21.4016C297.728 368.128 398.9504 300.5952 512 300.5952c113.0496 0 214.272 67.5328 303.36 200.0896a19.1488 19.1488 0 0 1 0 21.4016c-89.088 132.608-190.3104 200.0896-303.36 200.0896z m0-38.2976c95.744 0 183.6544-56.7808 264.192-172.4928C695.7056 395.6736 607.744 338.944 512 338.944S328.3456 395.6736 247.808 511.3856c80.5376 115.712 168.448 172.4928 264.192 172.4928z" fill="#666666" p-id="163855" data-spm-anchor-id="a313x.search_index.0.i24.cf153a81H3zqBL" class="selected"></path></svg>