<?xml version="1.0" standalone="no"?><!DOCTYPE svg PUBLIC "-//W3C//DTD SVG 1.1//EN" "http://www.w3.org/Graphics/SVG/1.1/DTD/svg11.dtd"><svg t="1744890219480" class="icon" viewBox="0 0 1024 1024" version="1.1" xmlns="http://www.w3.org/2000/svg" p-id="4631" xmlns:xlink="http://www.w3.org/1999/xlink" width="200" height="200"><path d="M779.2 710.4l166.4 166.4c19.2 19.2 19.2 49.6 0 67.2-19.2 19.2-49.6 19.2-67.2 0L710.4 779.2C643.2 832 556.8 864 464 864 243.2 864 64 684.8 64 464S243.2 64 464 64s400 179.2 400 400c0 92.8-32 179.2-84.8 246.4zM464 768c168 0 304-136 304-304s-136-304-304-304-304 136-304 304 136 304 304 304z" fill="#333333" p-id="4632"></path></svg>