<?xml version="1.0" standalone="no"?><!DOCTYPE svg PUBLIC "-//W3C//DTD SVG 1.1//EN" "http://www.w3.org/Graphics/SVG/1.1/DTD/svg11.dtd"><svg t="1733058318854" class="icon" viewBox="0 0 1024 1024" version="1.1" xmlns="http://www.w3.org/2000/svg" p-id="2301" xmlns:xlink="http://www.w3.org/1999/xlink" width="200" height="200"><path d="M812.9536 283.4944l-257.1776-148.48c-28.416-16.384-63.744-16.384-92.16 0l-257.1776 148.48c-28.416 16.4352-46.08 47.0016-46.08 79.8208v297.0112c0 32.8192 17.664 63.3856 46.08 79.8208l257.1776 148.48c14.2336 8.192 30.1568 12.288 46.08 12.288 15.9232 0 31.8464-4.096 46.08-12.288l257.1776-148.48c28.416-16.384 46.08-47.0016 46.08-79.8208V363.264c0-32.8192-17.664-63.3856-46.08-79.7696z m-106.4448 153.4464l-171.2128 96.3072v192.5632c0 14.1312-11.4688 25.6-25.6 25.6s-25.6-11.4688-25.6-25.6v-192.5632L313.0368 436.9408a25.54368 25.54368 0 0 1-9.728-34.8672 25.54368 25.54368 0 0 1 34.8672-9.728l171.5712 96.5632 171.7248-96.5632c12.3392-6.912 27.9552-2.56 34.8672 9.7792 6.8608 12.288 2.5088 27.904-9.8304 34.816z" fill="#9fc6ff" p-id="2302"></path></svg>